# Blender 4.1.0
# www.blender.org
mtllib Rock.mtl
o defaultMaterial
v -0.733911 -0.010281 -0.153628
v -0.640843 -0.080623 -0.085867
v -0.906925 -0.098432 0.069740
v -0.909184 0.139760 0.388996
v -0.607811 0.336280 0.517097
v -0.775583 0.399607 0.313105
v -0.679495 0.099891 0.625944
v -0.166367 0.157869 0.178714
v -0.232521 0.232727 0.154929
v -0.291322 0.205826 0.315911
v -0.878568 0.330171 0.182259
v -0.733911 -0.010281 -0.153628
v -0.989351 0.086686 0.249292
v -0.547488 0.006840 -0.135544
v -0.671125 0.214064 -0.134620
v -0.437930 0.214922 -0.029810
v -0.487075 0.342922 0.459160
v -0.324012 0.333259 0.196132
v -0.658373 0.400347 0.128039
v -0.671125 0.214064 -0.134620
v -0.583117 0.339216 -0.006303
v -0.437930 0.214922 -0.029810
v -0.315881 -0.077816 0.048612
v -0.430653 -0.103049 0.530255
v -0.976381 -0.120441 0.364212
v -0.533329 0.301788 0.542350
v -0.430653 -0.103049 0.530255
v -0.236752 -0.057261 0.328600
v -0.236752 -0.057261 0.328600
v -0.437930 0.214922 -0.029810
v -0.171240 0.032189 0.160028
v -0.467021 -0.076033 -0.098566
v -0.976381 -0.120441 0.364212
v -0.710410 -0.070591 0.616319
v -0.984540 0.065669 0.332183
v -0.906925 -0.098432 0.069740
v -0.733911 -0.010281 -0.153628
v -0.671125 0.214064 -0.134620
v -0.733376 -0.110811 0.477541
v -0.710410 -0.070591 0.616319
v -0.614971 0.122450 0.653474
v -0.315881 -0.077816 0.048612
v -0.710410 -0.070591 0.616319
v -0.430653 -0.103049 0.530255
v -0.614971 0.122450 0.653474
v -0.522585 0.372116 0.071618
v -0.878568 0.330171 0.182259
v -0.831771 0.325309 0.314096
v -0.761455 0.414925 0.214638
v -0.467021 -0.076033 -0.098566
v -1.000000 -0.103135 0.225734
v -0.775583 0.399607 0.313105
v -0.607811 0.336280 0.517097
v -0.324012 0.333259 0.196132
v -0.487075 0.342922 0.459160
v -0.232521 0.232727 0.154929
v -0.861079 0.360930 0.212505
v -0.547488 0.006840 -0.135544
v -0.547488 0.006840 -0.135544
v -0.533329 0.301788 0.542350
v -0.614971 0.122450 0.653474
v -0.607811 0.336280 0.517097
v -0.679495 0.099891 0.625944
v -1.000000 -0.103135 0.225734
v -0.640843 -0.080623 -0.085867
v -0.547488 0.006840 -0.135544
v -0.467021 -0.076033 -0.098566
v -0.861079 0.360930 0.212505
vn -0.6940 0.0680 -0.7167
vn -0.0239 -0.9546 -0.2969
vn -0.5962 -0.6162 -0.5147
vn -0.6762 0.3821 0.6299
vn -0.4502 0.6110 0.6512
vn -0.2584 0.8790 0.4007
vn -0.6203 0.3300 0.7116
vn 0.9636 0.2610 -0.0576
vn 0.7001 0.6570 -0.2796
vn 0.7378 0.3588 0.5718
vn -0.7286 0.4599 -0.5075
vn -0.8993 0.2773 -0.3382
vn 0.2880 0.0109 -0.9576
vn -0.2261 0.4696 -0.8534
vn 0.5415 0.3374 -0.7701
vn 0.3135 0.9207 0.2323
vn 0.4639 0.8842 -0.0553
vn 0.1482 0.9888 0.0201
vn -0.1215 0.7745 -0.6208
vn 0.1482 -0.9860 -0.0770
vn 0.3612 -0.8412 0.4023
vn -0.0897 -0.9946 0.0530
vn 0.6571 0.2255 0.7193
vn 0.3612 -0.8412 0.4024
vn 0.8020 -0.1976 0.5637
vn 0.5415 0.3374 -0.7700
vn 0.7725 -0.1011 -0.6269
vn 0.3771 -0.7522 -0.5404
vn -0.4484 -0.2933 0.8444
vn -0.8146 0.1206 0.5673
vn -0.5961 -0.6162 -0.5147
vn -0.2261 0.4697 -0.8534
vn -0.0405 -0.9712 0.2347
vn -0.4484 -0.2933 0.8443
vn 0.3089 0.0726 0.9483
vn 0.3613 -0.8412 0.4024
vn 0.3672 0.8162 -0.4460
vn -0.8145 0.4686 0.3420
vn -0.3335 0.8520 -0.4035
vn -0.9692 -0.1631 -0.1846
vn -0.6830 0.7128 0.1594
vn 0.2880 0.0108 -0.9576
vn 0.6571 0.2254 0.7193
vn 0.3089 0.0725 0.9483
vn 0.3770 -0.7522 -0.5404
vt 0.086382 0.340752
vt 0.111591 0.322398
vt 0.039518 0.280249
vt 0.806719 0.289092
vt 0.867613 0.328785
vt 0.887235 0.265576
vt 0.794365 0.362512
vt 0.885631 0.692598
vt 0.909853 0.700294
vt 0.901148 0.648205
vt 0.865720 0.225032
vt 0.760227 0.120953
vt 0.790273 0.245803
vt 0.776544 0.772002
vt 0.719176 0.737775
vt 0.718939 0.802332
vt 0.723595 0.726805
vt 0.771717 0.649180
vt 0.673041 0.629085
vt 0.669278 0.551569
vt 0.695251 0.589438
vt 0.738098 0.582501
vt 0.199612 0.285972
vt 0.168525 0.155511
vt 0.020705 0.200487
vt 0.932199 0.574937
vt 0.801206 0.578850
vt 0.816022 0.644100
vt 0.221046 0.210133
vt 0.904091 0.760070
vt 0.844965 0.698644
vt 0.809947 0.782317
vt 0.726093 0.281412
vt 0.741539 0.359530
vt 0.783761 0.271487
vt 0.732912 0.190167
vt 0.781284 0.720393
vt 0.829743 0.126843
vt 0.086527 0.169789
vt 0.092748 0.132199
vt 0.874170 0.538980
vt 0.809370 0.734695
vt 0.890626 0.834097
vt 0.970237 0.843334
vt 0.917785 0.779163
vt 0.713115 0.612434
vt 0.608058 0.645086
vt 0.864213 0.265883
vt 0.642620 0.654642
vt 0.158674 0.325838
vt 0.731455 0.238503
vt 0.638451 0.683701
vt 0.687963 0.743903
vt 0.942382 0.686962
vt 0.945509 0.601854
vt 0.798718 0.637021
vt 0.613219 0.654012
vt 0.836762 0.794283
vt 0.136878 0.335854
vt 0.709944 0.751355
vt 0.685850 0.784150
vt 0.919823 0.718312
vt 0.899423 0.785582
vt 0.014307 0.237996
vt 0.335938 0.950800
vt 0.311183 0.977224
vt 0.334639 1.000000
vt 0.875251 0.234404
s 1
usemtl lambert1
f 1/1/1 2/2/2 3/3/3
f 4/4/4 5/5/5 6/6/6
f 4/4/4 7/7/7 5/5/5
f 8/8/8 9/9/9 10/10/10
f 11/11/11 12/12/1 13/13/12
f 14/14/13 15/15/14 16/16/15
f 17/17/16 18/18/17 19/19/18
f 20/20/14 21/21/19 22/22/15
f 23/23/20 24/24/21 25/25/22
f 26/26/23 27/27/24 28/28/25
f 29/29/25 24/24/21 23/23/20
f 30/30/26 31/31/27 32/32/28
f 33/33/22 34/34/29 35/35/30
f 12/12/1 36/36/31 13/13/12
f 14/14/13 37/37/1 15/15/14
f 12/12/1 11/11/11 38/38/32
f 39/39/33 40/40/34 25/25/22
f 27/27/24 26/26/23 41/41/35
f 28/28/25 8/8/8 10/10/10
f 28/28/25 42/42/20 31/31/27
f 43/43/29 44/44/36 45/45/35
f 34/34/29 7/7/7 4/4/4
f 18/18/17 46/46/37 19/19/18
f 20/20/14 47/47/11 21/21/19
f 48/48/38 11/11/11 13/13/12
f 47/47/11 49/49/39 21/21/19
f 32/32/28 31/31/27 42/42/20
f 50/50/28 23/23/20 25/25/22
f 25/25/22 3/3/3 2/2/2
f 35/35/30 51/51/40 33/33/22
f 28/28/25 10/10/10 26/26/23
f 52/52/6 53/53/5 17/17/16
f 18/18/17 22/22/15 46/46/37
f 10/10/10 9/9/9 54/54/17
f 10/10/10 54/54/17 55/55/16
f 10/10/10 55/55/16 26/26/23
f 4/4/4 48/48/38 13/13/12
f 13/13/12 51/51/40 35/35/30
f 30/30/26 9/9/9 8/8/8
f 56/56/9 22/22/15 18/18/17
f 4/4/4 13/13/12 35/35/30
f 4/4/4 35/35/30 34/34/29
f 28/28/25 31/31/27 8/8/8
f 31/31/27 30/30/26 8/8/8
f 52/52/6 17/17/16 19/19/18
f 47/47/11 57/57/41 49/49/39
f 30/30/26 32/32/28 58/58/13
f 59/59/42 2/2/2 1/1/1
f 60/60/43 17/17/16 53/53/5
f 61/61/44 60/60/43 53/53/5
f 22/22/15 21/21/19 46/46/37
f 46/46/37 21/21/19 19/19/18
f 62/62/5 63/63/7 45/45/35
f 63/63/7 43/43/29 45/45/35
f 36/36/31 51/51/40 13/13/12
f 3/3/3 25/25/22 64/64/40
f 52/52/6 19/19/18 49/49/39
f 19/19/18 21/21/19 49/49/39
f 2/2/2 50/50/28 25/25/22
f 65/65/2 66/66/42 67/67/45
f 4/4/4 6/6/6 48/48/38
f 52/52/6 49/49/39 57/57/41
f 24/24/21 39/39/33 25/25/22
f 24/24/21 40/40/34 39/39/33
f 11/11/11 48/48/38 68/68/41
f 68/68/41 48/48/38 6/6/6
o defaultMaterial.001
v -0.461914 -0.094860 0.233877
v -0.312702 -0.070402 0.379976
v -0.546189 0.120866 0.140236
v 0.090368 -0.038552 -0.165600
v 0.218363 -0.055880 0.291396
v -0.513332 -0.080853 0.091229
v 0.479918 0.280916 -0.067430
v -0.008843 0.803652 -0.407449
v 0.259826 0.919693 -0.178856
v -0.376887 0.072042 -0.264191
v -0.268234 0.281599 -0.365236
v -0.060570 0.240234 -0.515243
v 0.289297 0.305629 0.198994
v 0.479828 0.491346 -0.047961
v 0.250158 1.057660 0.108709
v 0.042007 1.023059 -0.182500
v -0.303836 1.064177 0.039461
v 0.041588 1.078855 0.309241
v -0.156166 0.800308 -0.374228
v -0.340846 0.931158 -0.100352
v -0.097734 0.775992 0.462625
v -0.356198 0.986592 0.178317
v -0.255183 0.023081 0.436954
v -0.063257 0.948179 0.443972
v -0.461914 -0.094860 0.233877
v -0.235878 -0.070668 0.277572
v -0.312702 -0.070402 0.379976
v -0.123970 0.176283 0.519897
v 0.062586 -0.016261 -0.435275
v -0.060570 0.240234 -0.515243
v 0.272502 -0.020417 -0.234813
v 0.062586 -0.016261 -0.435275
v 0.352295 0.005629 0.171156
v 0.409500 0.037173 0.061319
v 0.188383 1.035721 -0.100578
v 0.250158 1.057660 0.108709
v 0.429955 0.749947 -0.065421
v -0.175007 -0.019303 -0.397395
v -0.513332 -0.080853 0.091229
v -0.516820 0.410338 0.032660
v -0.469350 0.613980 0.124822
v -0.417336 0.820893 -0.008493
v -0.340846 0.931158 -0.100352
v -0.220974 1.086061 0.275800
v -0.063257 0.948179 0.443972
v 0.041588 1.078855 0.309241
v -0.376887 0.072042 -0.264191
v -0.513332 -0.080853 0.091229
v -0.579999 -0.021158 0.067673
v -0.579999 -0.021158 0.067673
v 0.064702 0.067196 0.441652
v -0.255183 0.023081 0.436954
v -0.050594 -0.054966 0.360718
v -0.045646 0.344457 0.511398
v 0.409500 0.037173 0.061319
v 0.352295 0.005629 0.171156
v 0.297722 -0.015930 0.241787
v 0.064702 0.067196 0.441652
v 0.153143 -0.054649 0.378093
v -0.008843 0.803652 -0.407449
v -0.160838 0.446402 -0.452899
v -0.008843 0.803652 -0.407449
v -0.060570 0.240234 -0.515243
v 0.188383 1.035721 -0.100578
v 0.259826 0.919693 -0.178856
v -0.130417 0.082764 -0.452020
v 0.153143 -0.054649 0.378093
v -0.495798 0.399707 0.140442
v 0.333053 -0.003803 -0.129168
v 0.447802 0.134385 -0.079217
v -0.303836 1.064177 0.039461
v -0.130417 0.082764 -0.452020
v -0.060570 0.240234 -0.515243
v 0.062586 -0.016261 -0.435275
v -0.175007 -0.019303 -0.397395
v -0.063257 0.948179 0.443972
v -0.220974 1.086061 0.275800
v 0.218363 -0.055880 0.291396
v -0.566496 0.142067 0.040387
v -0.540227 0.274376 0.123175
v -0.045646 0.344457 0.511398
v -0.097734 0.775992 0.462625
v -0.123970 0.176283 0.519897
v -0.123970 0.176283 0.519897
v 0.064702 0.067196 0.441652
v -0.156166 0.800308 -0.374228
v -0.156166 0.800308 -0.374228
v 0.333053 -0.003803 -0.129168
v -0.063257 0.948179 0.443972
v 0.272502 -0.020417 -0.234813
v -0.160838 0.446402 -0.452899
v -0.175007 -0.019303 -0.397395
vn -0.6048 -0.6205 0.4991
vn -0.4661 -0.5076 0.7246
vn -0.7482 0.0338 0.6626
vn 0.0497 -0.9966 -0.0650
vn 0.1138 -0.9933 -0.0220
vn -0.0661 -0.9885 -0.1360
vn 0.7064 0.0525 -0.7059
vn 0.4822 0.1998 -0.8530
vn 0.6350 0.3104 -0.7074
vn -0.7865 -0.0324 -0.6167
vn -0.7539 0.1064 -0.6483
vn 0.3548 0.0531 -0.9334
vn 0.7061 0.1107 0.6994
vn 0.7994 0.1048 0.5916
vn 0.7782 0.2870 0.5586
vn -0.0216 0.9027 -0.4297
vn -0.2860 0.9084 -0.3050
vn 0.0846 0.9945 0.0613
vn -0.5398 0.4665 -0.7007
vn -0.7985 0.2061 -0.5656
vn -0.6097 0.1290 0.7821
vn -0.7481 0.1878 0.6365
vn -0.6250 0.0314 0.7800
vn 0.5190 0.1896 0.8335
vn 0.0592 -0.9981 0.0186
vn -0.2228 -0.0798 0.9716
vn 0.3664 -0.6988 -0.6144
vn 0.4684 -0.7855 -0.4045
vn 0.8726 -0.0823 0.4815
vn 0.7559 -0.6516 0.0640
vn 0.1707 0.9567 -0.2357
vn 0.8709 0.3384 -0.3563
vn -0.3505 -0.7994 -0.4879
vn -0.8918 0.1616 -0.4227
vn -0.9618 0.2310 0.1466
vn -0.9427 0.3093 -0.1249
vn -0.3377 0.8323 0.4396
vn 0.0847 0.9945 0.0613
vn -0.7866 -0.0324 -0.6167
vn -0.9551 -0.2535 -0.1532
vn 0.4973 -0.1176 0.8595
vn -0.6250 0.0313 0.7800
vn 0.0382 -0.8365 0.5466
vn 0.5804 0.0849 0.8099
vn 0.8725 -0.0823 0.4816
vn 0.7200 0.0789 0.6895
vn 0.3255 -0.5407 0.7757
vn -0.4411 0.1476 -0.8852
vn 0.4821 0.1998 -0.8530
vn 0.3548 0.0532 -0.9334
vn -0.3929 -0.2309 -0.8901
vn -0.7294 0.1329 0.6710
vn 0.5453 -0.8333 -0.0902
vn 0.8667 -0.3760 -0.3278
vn -0.3506 -0.7994 -0.4879
vn -0.3377 0.8323 0.4395
vn -0.8980 0.0967 -0.4292
vn -0.8253 0.1454 0.5456
vn -0.6097 0.1289 0.7821
vn 0.4973 -0.1176 0.8596
vn 0.5190 0.1895 0.8335
vn -0.3505 -0.7995 -0.4879
vt 0.564489 1.000000
vt 0.609706 0.992430
vt 0.535508 0.933235
vt 0.371024 0.658627
vt 0.406462 0.532099
vt 0.203878 0.587519
vt 0.185919 0.891821
vt 0.295132 0.723920
vt 0.221708 0.686647
vt 0.410342 0.948345
vt 0.379069 0.883489
vt 0.332643 0.896292
vt 0.100344 0.883884
vt 0.179665 0.824232
vt 0.129343 0.642332
vt 0.801383 0.427343
vt 0.701060 0.491730
vt 0.801262 0.569989
vt 0.743897 0.371727
vt 0.461048 0.682457
vt 0.635285 0.730479
vt 0.547294 0.665301
vt 0.627340 0.963498
vt 0.021657 0.677498
vt 0.218114 0.548024
vt 0.280697 0.535926
vt 0.259426 0.507573
vt 0.653010 0.916084
vt 0.363332 0.733292
vt 0.329756 0.904889
vt 0.239682 0.988609
vt 0.304070 0.987274
vt 0.109285 0.980243
vt 0.144565 0.970112
vt 0.843845 0.451108
vt 0.861764 0.511818
vt 0.185273 0.741170
vt 0.369116 0.976616
vt 0.520341 0.995665
vt 0.502214 0.843646
vt 0.530738 0.780621
vt 0.489478 0.716583
vt 0.690324 0.451173
vt 0.725097 0.560288
vt 0.770848 0.609072
vt 0.064933 0.635525
vt 0.982916 0.842083
vt 0.940141 0.730658
vt 0.919240 0.738043
vt 0.513051 0.977190
vt 0.363918 0.490497
vt 0.275352 0.491798
vt 0.331996 0.512906
vt 0.000000 0.871412
vt 0.459382 0.595800
vt 0.443544 0.565389
vt 0.086599 0.987168
vt 0.022402 0.960468
vt 0.042817 0.999605
vt 0.786633 0.362090
vt 0.000000 0.081861
vt 0.041516 0.179441
vt 0.027387 0.025548
vt 0.196566 0.649379
vt 0.864569 0.428401
vt 0.352210 0.945027
vt 0.388405 0.508095
vt 0.535572 0.846936
vt 0.438216 0.648540
vt 0.189704 0.938887
vt 0.504319 0.641289
vt 0.945965 0.736048
vt 0.965415 0.779899
vt 0.999711 0.708472
vt 0.297550 0.722804
vt 0.629512 0.677189
vt 0.577464 0.634516
vt 0.070664 1.000000
vt 0.504606 0.926673
vt 0.530228 0.885725
vt 0.693689 0.183567
vt 0.679558 0.066495
vt 0.672440 0.229192
vt 0.311680 0.468834
vt 0.723626 0.258786
vt 0.001276 0.178528
vt 0.376286 0.722954
vt 0.205749 0.983273
vt 0.688912 0.019781
vt 0.421451 0.677790
vt 0.351938 0.832484
vt 0.933548 0.707625
s 1
usemtl lambert1
f 69/69/46 70/70/47 71/71/48
f 72/72/49 73/73/50 74/74/51
f 75/75/52 76/76/53 77/77/54
f 78/78/55 79/79/56 80/80/57
f 81/81/58 82/82/59 83/83/60
f 84/84/61 85/85/62 86/86/63
f 84/84/61 87/87/64 85/85/62
f 79/79/56 78/78/55 88/88/65
f 89/89/66 90/90/67 91/91/68
f 92/92/69 81/81/58 83/83/60
f 93/93/46 94/94/70 95/95/47
f 96/96/71 89/89/66 91/91/68
f 97/97/72 72/72/49 74/74/51
f 98/98/57 76/76/53 75/75/52
f 99/99/73 100/100/72 75/75/52
f 75/75/52 101/101/74 102/102/75
f 103/103/76 86/86/63 104/104/60
f 83/83/60 105/105/77 77/77/54
f 78/78/55 106/106/78 107/107/51
f 108/108/79 88/88/65 78/78/55
f 109/109/80 110/110/81 108/108/79
f 85/85/62 87/87/64 111/111/65
f 86/86/63 112/112/82 113/113/69
f 92/92/69 83/83/60 114/114/83
f 115/115/84 116/116/51 117/117/85
f 118/118/85 69/69/46 71/71/48
f 119/119/86 120/120/87 121/121/88
f 81/81/58 92/92/69 122/122/89
f 73/73/50 123/123/75 124/124/90
f 125/125/91 126/126/86 127/127/92
f 87/87/64 84/84/61 128/128/53
f 129/129/93 130/130/94 131/131/95
f 132/132/76 83/83/60 77/77/54
f 133/133/54 128/128/53 84/84/61
f 100/100/72 98/98/57 75/75/52
f 78/78/55 80/80/57 134/134/96
f 119/119/86 121/121/88 135/135/92
f 94/94/70 74/74/51 73/73/50
f 93/93/46 74/74/51 94/94/70
f 107/107/51 69/69/46 118/118/85
f 109/109/80 90/90/67 110/110/81
f 91/91/68 90/90/67 136/136/97
f 73/73/50 137/137/98 123/123/75
f 138/138/99 75/75/52 102/102/75
f 90/90/67 139/139/62 110/110/81
f 86/86/63 85/85/62 112/112/82
f 140/140/96 141/141/57 142/142/72
f 143/143/100 97/97/72 74/74/51
f 144/144/69 145/145/101 90/90/67
f 145/145/101 139/139/62 90/90/67
f 127/127/92 146/146/50 125/125/91
f 73/73/50 135/135/92 121/121/88
f 110/110/81 88/88/65 108/108/79
f 110/110/81 139/139/62 88/88/65
f 75/75/52 77/77/54 105/105/77
f 83/83/60 82/82/59 105/105/77
f 94/94/70 73/73/50 121/121/88
f 94/94/70 121/121/88 95/95/47
f 105/105/77 82/82/59 75/75/52
f 101/101/74 75/75/52 82/82/59
f 118/118/85 147/147/102 78/78/55
f 118/118/85 148/148/103 147/147/102
f 149/149/89 150/150/104 151/151/71
f 152/152/71 120/120/87 119/119/86
f 122/122/89 126/126/86 81/81/58
f 151/151/71 153/153/105 149/149/89
f 129/129/93 154/154/64 130/130/94
f 88/88/65 155/155/64 79/79/56
f 156/156/98 138/138/99 102/102/75
f 99/99/73 75/75/52 138/138/99
f 149/149/89 157/157/106 150/150/104
f 144/144/69 90/90/67 89/89/66
f 108/108/79 147/147/102 148/148/103
f 147/147/102 108/108/79 78/78/55
f 158/158/73 137/137/98 73/73/50
f 156/156/98 99/99/73 138/138/99
f 84/84/61 103/103/76 133/133/54
f 103/103/76 84/84/61 86/86/63
f 70/70/47 91/91/68 71/71/48
f 120/120/87 95/95/47 121/121/88
f 97/97/72 158/158/73 72/72/49
f 72/72/49 158/158/73 73/73/50
f 79/79/56 159/159/93 80/80/57
f 155/155/64 159/159/93 79/79/56
f 91/91/68 136/136/97 148/148/103
f 148/148/103 136/136/97 108/108/79
f 81/81/58 125/125/91 82/82/59
f 126/126/86 125/125/91 81/81/58
f 140/140/96 142/142/72 160/160/107
f 106/106/78 78/78/55 134/134/96
f 136/136/97 90/90/67 109/109/80
f 136/136/97 109/109/80 108/108/79
f 82/82/59 125/125/91 101/101/74
f 146/146/50 101/101/74 125/125/91
f 71/71/48 148/148/103 118/118/85
f 91/91/68 148/148/103 71/71/48
o defaultMaterial.002
v 0.301478 -0.066288 -0.633347
v -0.001137 -0.055963 -0.405232
v 0.317657 0.251243 -0.565547
v 0.162830 0.134815 -0.071377
v 0.047889 0.259801 -0.360362
v 0.020814 -0.050647 -0.184683
v 0.491637 -0.005130 0.036443
v 0.390293 -0.003692 0.069966
v 0.020814 -0.050647 -0.184683
v 0.543848 0.307573 -0.116261
v 0.236091 0.119399 0.079190
v 0.413605 0.129242 0.012221
v 0.301478 -0.066288 -0.633347
v 0.657853 -0.039535 -0.368175
v -0.015865 -0.061535 -0.296980
v 0.526046 0.047120 -0.623442
v 0.705268 0.263602 -0.261912
v 0.752536 0.054286 -0.220957
v 0.317657 0.251243 -0.565547
v 0.547228 0.279199 -0.522470
v 0.526046 0.047120 -0.623442
v 0.288650 0.383800 -0.158727
v 0.496629 0.377254 -0.418072
v 0.267635 0.367114 -0.429459
v 0.390293 -0.003692 0.069966
v 0.213426 0.365839 -0.186824
v 0.114871 0.349894 -0.322671
v 0.460978 0.400829 -0.136471
v 0.547228 0.279199 -0.522470
v 0.317657 0.251243 -0.565547
v 0.547228 0.279199 -0.522470
v 0.665399 0.328128 -0.194573
v 0.625571 0.008892 -0.028056
v 0.702399 0.082376 -0.105363
v 0.392615 0.027893 -0.653474
v 0.574809 -0.055965 -0.560938
v 0.696956 -0.024272 -0.295559
v 0.708327 0.007947 -0.157845
v 0.625571 0.008892 -0.028056
v 0.696956 -0.024272 -0.295559
v 0.574809 -0.055965 -0.560938
v 0.114871 0.349894 -0.322671
v 0.213426 0.365839 -0.186824
v 0.577961 0.362331 -0.342216
v 0.574809 -0.055965 -0.560938
v 0.491637 -0.005130 0.036443
v 0.568883 0.376996 -0.172003
v 0.577961 0.362331 -0.342216
v -0.001137 -0.055963 -0.405232
v -0.020415 0.022060 -0.321332
v 0.665399 0.328128 -0.194573
v 0.460978 0.400829 -0.136471
v 0.568883 0.376996 -0.172003
v 0.301478 -0.066288 -0.633347
v 0.291151 0.323516 -0.051810
v 0.236091 0.119399 0.079190
v 0.708327 0.007947 -0.157845
v 0.702399 0.082376 -0.105363
v 0.625571 0.008892 -0.028056
v 0.047889 0.259801 -0.360362
v 0.207157 0.022168 0.085410
v 0.207157 0.022168 0.085410
v 0.291151 0.323516 -0.051810
v 0.291151 0.323516 -0.051810
v -0.015865 -0.061535 -0.296980
v 0.657853 -0.039535 -0.368175
v 0.496629 0.377254 -0.418072
v 0.207157 0.022168 0.085410
v 0.665399 0.328128 -0.194573
vn -0.2350 -0.8617 -0.4498
vn -0.6562 0.0812 -0.7502
vn -0.3889 0.3738 -0.8420
vn -0.8048 0.3619 0.4704
vn -0.8966 0.4030 -0.1835
vn -0.3568 -0.8681 0.3450
vn 0.1073 -0.9693 0.2211
vn 0.0898 -0.6914 0.7168
vn -0.3568 -0.8682 0.3450
vn 0.3590 0.3968 0.8448
vn -0.1254 0.4683 0.8746
vn 0.3388 0.3611 0.8688
vn -0.2351 -0.8617 -0.4498
vn 0.0476 -0.9956 0.0805
vn -0.0319 -0.9981 0.0535
vn 0.6913 0.1856 -0.6983
vn 0.8703 0.2496 -0.4245
vn 0.9609 0.0665 -0.2688
vn 0.4553 0.5405 -0.7075
vn -0.1137 0.9928 0.0370
vn 0.0461 0.9736 -0.2236
vn -0.1211 0.9211 -0.3699
vn 0.0899 -0.6915 0.7168
vn -0.6211 0.6872 0.3767
vn -0.6964 0.7172 -0.0241
vn 0.1521 0.8666 0.4752
vn 0.4553 0.5406 -0.7075
vn 0.7011 0.4852 0.5225
vn 0.4992 0.0557 0.8647
vn 0.8035 0.1731 0.5696
vn 0.0363 0.0154 -0.9992
vn 0.6132 -0.5557 -0.5614
vn 0.4409 -0.8964 0.0463
vn 0.7158 -0.6176 0.3258
vn 0.4993 0.0557 0.8646
vn -0.6212 0.6872 0.3767
vn 0.5015 0.8340 -0.2303
vn 0.3902 0.8796 0.2720
vn -0.9731 0.2112 0.0918
vn 0.3902 0.8796 0.2721
vn -0.2351 -0.8616 -0.4498
vn -0.2375 0.6754 0.6981
vn -0.8966 0.4029 -0.1835
vn -0.6303 -0.3079 0.7127
vn -0.2375 0.6754 0.6982
vt 0.211032 0.044923
vt 0.214269 0.116455
vt 0.310602 0.066184
vt 0.274093 0.221144
vt 0.313286 0.130525
vt 0.215936 0.185614
vt 0.523428 0.258939
vt 0.532439 0.231696
vt 0.463984 0.132372
vt 0.970335 0.227592
vt 0.915912 0.138583
vt 0.918758 0.189923
vt 0.343374 0.207821
vt 0.414658 0.303622
vt 0.433797 0.122512
vt 0.903006 0.554341
vt 0.966562 0.448201
vt 0.905110 0.436178
vt 0.423056 0.413722
vt 0.487895 0.421618
vt 0.481913 0.356071
vt 0.542305 0.119856
vt 0.617067 0.179811
vt 0.620350 0.113798
vt 0.880311 0.183181
vt 0.346537 0.184943
vt 0.341537 0.142344
vt 0.535889 0.169534
vt 0.971141 0.524697
vt 0.659580 0.128218
vt 0.647162 0.194397
vt 0.976280 0.262747
vt 0.883951 0.251227
vt 0.905204 0.273448
vt 0.444227 0.350640
vt 0.362839 0.281298
vt 0.434178 0.314133
vt 0.471199 0.317190
vt 0.506089 0.294944
vt 0.882047 0.458080
vt 0.872742 0.535991
vt 0.589566 0.069761
vt 0.550405 0.098171
vt 0.995547 0.471777
vt 0.495685 0.326956
vt 0.879895 0.212491
vt 0.546132 0.200640
vt 0.595200 0.203257
vt 0.404696 0.126471
vt 0.238736 0.142764
vt 0.985506 0.428431
vt 0.997307 0.203624
vt 0.990414 0.234832
vt 0.418487 0.324040
vt 0.974946 0.154507
vt 0.269259 0.268359
vt 0.891505 0.417649
vt 0.913357 0.402241
vt 0.891783 0.379545
vt 0.600431 0.050451
vt 0.536591 0.182465
vt 0.887791 0.130214
vt 0.333265 0.227280
vt 0.511484 0.120577
vt 0.212522 0.150400
vt 0.877566 0.479399
vt 0.999929 0.494047
vt 0.238769 0.270309
vt 0.552638 0.228462
s 1
usemtl lambert1
f 161/161/108 162/162/109 163/163/110
f 164/164/111 165/165/112 166/166/113
f 167/167/114 168/168/115 169/169/116
f 170/170/117 171/171/118 172/172/119
f 173/173/120 174/174/121 175/175/122
f 176/176/123 177/177/124 178/178/125
f 179/179/110 180/180/126 181/181/123
f 182/182/127 183/183/128 184/184/129
f 172/172/119 171/171/118 185/185/130
f 186/186/131 187/187/132 164/164/111
f 182/182/127 188/188/133 183/183/128
f 176/176/123 189/189/134 177/177/124
f 163/163/110 162/162/109 165/165/112
f 190/190/110 184/184/129 191/191/126
f 174/174/121 167/167/114 169/169/116
f 192/192/135 193/193/136 194/194/137
f 179/179/110 181/181/123 195/195/138
f 196/196/139 174/174/121 173/173/120
f 197/197/140 198/198/141 199/199/142
f 178/178/125 200/200/140 201/201/139
f 184/184/129 202/202/132 203/203/143
f 190/190/110 202/202/132 184/184/129
f 183/183/128 191/191/126 184/184/129
f 177/177/124 189/189/134 204/204/144
f 176/176/123 178/178/125 201/201/139
f 205/205/139 195/195/138 181/181/123
f 193/193/136 170/170/117 172/172/119
f 197/197/140 199/199/142 167/167/114
f 185/185/130 206/206/114 172/172/119
f 172/172/119 206/206/114 193/193/136
f 188/188/133 207/207/145 208/208/144
f 193/193/136 192/192/135 170/170/117
f 209/209/109 173/173/120 175/175/122
f 165/165/112 162/162/109 210/210/146
f 211/211/135 178/178/125 177/177/124
f 211/211/135 177/177/124 204/204/144
f 169/169/116 175/175/122 174/174/121
f 210/210/146 166/166/113 165/165/112
f 171/171/118 170/170/117 212/212/133
f 213/213/147 212/212/133 170/170/117
f 214/214/148 195/195/138 205/205/139
f 179/179/110 195/195/138 214/214/148
f 215/215/149 171/171/118 212/212/133
f 216/216/118 186/186/131 164/164/111
f 217/217/141 218/218/137 219/219/136
f 178/178/125 211/211/135 218/218/137
f 165/165/112 164/164/111 187/187/132
f 220/220/150 202/202/132 190/190/110
f 200/200/140 178/178/125 217/217/141
f 217/217/141 178/178/125 218/218/137
f 168/168/115 221/221/151 169/169/116
f 185/185/130 171/171/118 222/222/151
f 186/186/131 216/216/118 223/223/152
f 224/224/149 188/188/133 182/182/127
f 162/162/109 225/225/122 210/210/146
f 210/210/146 225/225/122 166/166/113
f 182/182/127 184/184/129 203/203/143
f 203/203/143 224/224/149 182/182/127
f 174/174/121 197/197/140 167/167/114
f 201/201/139 200/200/140 226/226/121
f 188/188/133 208/208/144 183/183/128
f 204/204/144 189/189/134 227/227/128
f 216/216/118 164/164/111 228/228/151
f 164/164/111 166/166/113 228/228/151
f 213/213/147 170/170/117 192/192/135
f 229/229/135 208/208/144 207/207/145
o defaultMaterial.003
v 0.240255 0.728555 0.030812
v 0.243092 0.581255 0.276148
v 0.503575 0.735326 0.228432
v 0.175256 0.501705 -0.126829
v 0.119419 0.112252 -0.175706
v 0.243092 0.581255 0.276148
v 0.139905 -0.014021 -0.120603
v 0.319662 0.005377 -0.378335
v 0.585726 -0.046343 -0.386600
v 0.319662 0.005377 -0.378335
v 0.334797 0.628141 -0.272765
v 0.775303 0.571791 -0.291729
v 0.898846 0.512654 -0.189854
v 0.922888 0.476173 0.195638
v 0.999769 -0.020096 -0.167933
v 0.775303 0.571791 -0.291729
v 0.548097 0.674840 -0.265067
v 0.720922 0.739756 0.063378
v 0.153933 -0.018162 0.223466
v 0.206027 0.299258 0.362240
v 0.561882 0.276218 0.328026
v 0.629929 0.734834 0.215145
v 0.585726 -0.046343 -0.386600
v 0.945926 0.258532 -0.339193
v 0.945926 0.258532 -0.339193
v 0.922888 0.476173 0.195638
v 0.452702 -0.044496 -0.200654
v 0.996199 -0.077774 0.141200
v 0.143056 -0.023678 -0.024337
v 0.441218 -0.015218 0.408868
v 0.153933 -0.018162 0.223466
v 0.796961 -0.057315 0.336614
v 0.370292 0.065735 0.401695
v 0.206027 0.299258 0.362240
v 0.495582 0.742938 -0.174840
v 0.629929 0.734834 0.215145
v 0.888274 0.605731 0.049621
v 0.629929 0.734834 0.215145
v 1.000000 -0.073682 0.003143
v 0.749065 -0.037842 -0.369154
v 0.999769 -0.020096 -0.167933
v 0.749065 -0.037842 -0.369154
v 0.986223 0.161495 0.267587
v 0.441218 -0.015218 0.408868
v 0.796961 -0.057315 0.336614
v 0.986223 0.161495 0.267587
v 1.000000 -0.073682 0.003143
v 0.234264 0.711590 -0.087561
v 0.334797 0.628141 -0.272765
v 0.168260 0.267816 -0.321920
v 0.349550 0.740176 -0.167868
v 0.775303 0.571791 -0.291729
v 0.143056 -0.023678 -0.024337
v 0.243092 0.581255 0.276148
v 0.796961 -0.057315 0.336614
v 0.996199 -0.077774 0.141200
v 0.548097 0.674840 -0.265067
v 0.349550 0.740176 -0.167868
v 0.503575 0.735326 0.228432
v 0.168260 0.267816 -0.321920
v 0.124725 0.112624 -0.281428
v 0.319662 0.005377 -0.378335
v 0.139905 -0.014021 -0.120603
v 0.124725 0.112624 -0.281428
v 0.720922 0.739756 0.063378
v 0.240255 0.728555 0.030812
v 0.234264 0.711590 -0.087561
v 0.370292 0.065735 0.401695
v 0.749065 -0.037842 -0.369154
v 0.334797 0.628141 -0.272765
v 0.441218 -0.015218 0.408868
vn -0.6172 0.7566 0.2162
vn -0.8918 0.2753 0.3591
vn -0.1271 0.9621 0.2412
vn -0.9833 0.1803 0.0240
vn -0.9893 0.1003 0.1057
vn -0.3809 -0.8983 -0.2191
vn -0.0957 0.0153 -0.9953
vn -0.0433 -0.8768 -0.4788
vn -0.1745 0.2908 -0.9407
vn 0.1823 0.3970 -0.8995
vn 0.9502 0.2861 -0.1235
vn 0.8266 0.3050 0.4730
vn 0.9845 0.0183 -0.1744
vn 0.2534 0.7928 -0.5543
vn 0.4049 0.8938 -0.1930
vn -0.8382 -0.4683 0.2795
vn -0.1868 0.1803 0.9657
vn 0.1725 0.2188 0.9604
vn 0.2149 0.4860 0.8471
vn -0.0433 -0.8768 -0.4789
vn 0.3519 0.1160 -0.9288
vn -0.0680 -0.9975 -0.0206
vn 0.0662 -0.9959 0.0623
vn -0.1446 -0.9893 0.0175
vn 0.0926 -0.1798 0.9793
vn -0.8381 -0.4684 0.2796
vn 0.0641 -0.9437 0.3244
vn -0.2296 -0.0274 0.9729
vn 0.0432 0.9811 -0.1888
vn 0.7220 0.6910 0.0351
vn 0.7886 -0.6061 -0.1040
vn 0.3199 -0.7593 -0.5667
vn 0.6642 0.1513 0.7321
vn 0.0925 -0.1798 0.9793
vn 0.0640 -0.9437 0.3244
vn -0.7717 0.4629 -0.4361
vn -0.1745 0.2909 -0.9407
vn -0.5975 0.2560 -0.7600
vn -0.1257 0.9804 -0.1515
vn -0.1447 -0.9893 0.0175
vn -0.1256 0.9804 -0.1515
vn -0.5974 0.2560 -0.7600
vn -0.8888 -0.1491 -0.4334
vn -0.0957 0.0152 -0.9953
vn -0.8888 -0.1491 -0.4333
vn 0.4050 0.8937 -0.1929
vn -0.6172 0.7565 0.2162
vn -0.7717 0.4629 -0.4362
vn -0.2295 -0.0275 0.9729
vt 0.849391 0.930941
vt 0.850189 1.000000
vt 0.923512 0.986569
vt 0.350087 0.334380
vt 0.239055 0.320445
vt 0.372767 0.449268
vt 0.514991 0.404192
vt 0.445745 0.452489
vt 0.443525 0.523974
vt 0.831631 0.825473
vt 0.663581 0.829557
vt 0.678787 0.948425
vt 0.154771 0.405878
vt 0.041444 0.416602
vt 0.148326 0.562495
vt 1.000000 0.840150
vt 0.936044 0.847655
vt 0.984692 0.940108
vt 0.201874 0.434248
vt 0.522214 0.319492
vt 0.619276 0.325776
vt 0.637836 0.200686
vt 0.845587 0.897269
vt 0.763318 0.994467
vt 0.198673 0.480584
vt 0.717742 0.271237
vt 0.493484 0.488233
vt 0.585331 0.634257
vt 0.540856 0.405039
vt 0.657247 0.485148
vt 0.607434 0.407961
vt 0.637834 0.580727
vt 0.225793 0.485061
vt 0.292370 0.473813
vt 0.921262 0.873053
vt 0.959079 0.982829
vt 0.084370 0.378515
vt 0.035709 0.340561
vt 0.548239 0.635279
vt 0.448212 0.567859
vt 0.502275 0.635217
vt 0.207481 0.567712
vt 0.735017 0.357068
vt 0.586364 0.405267
vt 0.683395 0.416749
vt 0.020293 0.509111
vt 0.098034 0.578249
vt 0.409926 0.345575
vt 0.386134 0.292774
vt 0.283406 0.278760
vt 0.880156 0.875015
vt 0.184720 0.388493
vt 0.200301 0.363600
vt 0.532324 0.242576
vt 0.000000 0.573437
vt 0.057448 0.579452
vt 0.650980 0.887115
vt 0.418075 0.322680
vt 0.603372 0.200552
vt 0.760813 0.784618
vt 0.239161 0.290304
vt 0.208585 0.262676
vt 0.203055 0.336155
vt 0.802691 0.772870
vt 0.080326 0.339114
vt 0.414762 0.379323
vt 0.847704 0.897620
vt 0.567019 0.383187
vt 0.843293 0.941345
vt 0.876003 0.845488
vt 0.202714 0.487106
s 1
usemtl lambert1
f 230/230/153 231/231/154 232/232/155
f 233/233/156 234/234/157 235/235/154
f 236/236/158 237/237/159 238/238/160
f 239/239/159 240/240/161 241/241/162
f 242/242/163 243/243/164 244/244/165
f 245/245/162 246/246/166 247/247/167
f 248/248/168 235/235/154 234/234/157
f 249/249/169 250/250/170 251/251/171
f 252/252/172 239/239/159 253/253/173
f 254/254/173 242/242/163 244/244/165
f 251/251/171 250/250/170 255/255/164
f 256/256/174 257/257/175 258/258/176
f 259/259/177 260/260/178 261/261/179
f 262/262/180 263/263/169 248/248/168
f 247/247/167 264/264/181 265/265/171
f 243/243/164 266/266/182 267/267/171
f 268/268/183 269/269/184 270/270/165
f 271/271/184 254/254/173 244/244/165
f 272/272/185 273/273/186 274/274/187
f 275/275/185 276/276/183 244/244/165
f 277/277/188 278/278/189 279/279/190
f 280/280/191 230/230/153 232/232/155
f 241/241/162 253/253/173 239/239/159
f 254/254/173 281/281/162 242/242/163
f 260/260/178 258/258/176 261/261/179
f 234/234/157 282/282/192 248/248/168
f 249/249/169 251/251/171 283/283/154
f 263/263/169 235/235/154 248/248/168
f 284/284/179 285/285/175 275/275/185
f 258/258/176 257/257/175 261/261/179
f 241/241/162 240/240/161 286/286/166
f 278/278/189 277/277/188 287/287/193
f 264/264/181 232/232/155 265/265/171
f 283/283/154 251/251/171 288/288/155
f 239/239/159 289/289/194 240/240/161
f 290/290/195 291/291/196 292/292/158
f 243/243/164 275/275/185 244/244/165
f 272/272/185 255/255/164 250/250/170
f 290/290/195 233/233/156 279/279/190
f 239/239/159 293/293/197 289/289/194
f 266/266/182 294/294/198 267/267/171
f 266/266/182 281/281/162 294/294/198
f 290/290/195 292/292/158 234/234/157
f 234/234/157 233/233/156 290/290/195
f 242/242/163 266/266/182 243/243/164
f 242/242/163 281/281/162 266/266/182
f 233/233/156 235/235/154 295/295/199
f 296/296/200 230/230/153 280/280/191
f 272/272/185 250/250/170 273/273/186
f 250/250/170 249/249/169 297/297/201
f 269/269/184 257/257/175 238/238/160
f 252/252/172 253/253/173 298/298/184
f 246/246/166 299/299/161 264/264/181
f 247/247/167 246/246/166 264/264/181
f 236/236/158 256/256/174 258/258/176
f 234/234/157 292/292/158 282/282/192
f 264/264/181 299/299/161 280/280/191
f 264/264/181 280/280/191 232/232/155
f 257/257/175 269/269/184 268/268/183
f 285/285/175 276/276/183 275/275/185
f 233/233/156 295/295/199 277/277/188
f 277/277/188 279/279/190 233/233/156
f 250/250/170 297/297/201 273/273/186
f 248/248/168 300/300/186 262/262/180
f 256/256/174 236/236/158 238/238/160
f 256/256/174 238/238/160 257/257/175
